<svg width="274" height="91" viewBox="0 0 274 91" fill="none" xmlns="http://www.w3.org/2000/svg">
<path d="M13.96 40.992C11.304 39.744 8.984 38.08 7 36C5.048 33.888 3.528 31.52 2.44 28.896C1.384 26.24 0.856 23.488 0.856 20.64C0.856 17.792 1.384 15.088 2.44 12.528C3.496 9.936 4.984 7.632 6.904 5.616C8.824 3.568 11.08 1.936 13.672 0.719999L14.584 3.696C12.536 4.816 10.728 6.256 9.16 8.016C7.624 9.776 6.424 11.744 5.56 13.92C4.696 16.096 4.264 18.384 4.264 20.784C4.264 23.184 4.696 25.488 5.56 27.696C6.424 29.904 7.656 31.904 9.256 33.696C10.856 35.488 12.728 36.96 14.872 38.112L13.96 40.992ZM31.24 11.664L26.392 5.184L29.032 3.264L33.064 10.416L31.24 11.664ZM45.304 36V6.096H53.8C57.256 6.096 59.768 6.768 61.336 8.112C62.936 9.456 63.736 11.2 63.736 13.344C63.736 14.752 63.352 16.08 62.584 17.328C61.816 18.576 60.728 19.456 59.32 19.968C61.016 20.544 62.376 21.552 63.4 22.992C64.424 24.4 64.936 25.936 64.936 27.6C64.936 30.128 64.04 32.16 62.248 33.696C60.456 35.232 57.624 36 53.752 36H45.304ZM48.616 18.48H53.32C55.976 18.48 57.816 18.032 58.84 17.136C59.864 16.24 60.376 15.104 60.376 13.728C60.376 12.416 59.88 11.296 58.888 10.368C57.896 9.408 56.216 8.928 53.848 8.928H48.616V18.48ZM48.616 33.072H54.328C56.408 33.072 58.104 32.656 59.416 31.824C60.728 30.96 61.384 29.488 61.384 27.408C61.384 25.616 60.792 24.16 59.608 23.04C58.456 21.888 56.424 21.312 53.512 21.312H48.616V33.072ZM80.056 36.48C76.856 36.48 74.264 35.504 72.28 33.552C70.328 31.6 69.352 28.784 69.352 25.104C69.352 22.608 69.8 20.512 70.696 18.816C71.624 17.088 72.84 15.776 74.344 14.88C75.88 13.984 77.576 13.536 79.432 13.536C81.096 13.536 82.6 13.904 83.944 14.64C85.288 15.376 86.36 16.512 87.16 18.048C87.96 19.584 88.36 21.552 88.36 23.952C88.36 24.208 88.344 24.48 88.312 24.768C88.312 25.024 88.296 25.28 88.264 25.536H72.664C72.792 28.352 73.576 30.416 75.016 31.728C76.488 33.04 78.2 33.696 80.152 33.696C82.456 33.696 84.344 32.88 85.816 31.248L87.736 33.12C85.88 35.36 83.32 36.48 80.056 36.48ZM72.808 22.848H84.856C84.856 20.8 84.328 19.184 83.272 18C82.248 16.784 80.888 16.176 79.192 16.176C77.688 16.176 76.328 16.72 75.112 17.808C73.896 18.864 73.128 20.544 72.808 22.848ZM92.824 36V14.064H95.992V16.224C96.504 15.424 97.16 14.784 97.96 14.304C98.76 13.792 99.592 13.536 100.456 13.536C101.416 13.536 102.248 13.84 102.952 14.448C103.688 15.056 104.152 15.824 104.344 16.752C104.76 15.792 105.416 15.024 106.312 14.448C107.208 13.84 108.2 13.536 109.288 13.536C110.792 13.536 111.88 14.08 112.552 15.168C113.256 16.224 113.576 17.552 113.512 19.152V36H110.344V20.448C110.344 19.104 110.248 18.128 110.056 17.52C109.896 16.912 109.656 16.528 109.336 16.368C109.016 16.176 108.664 16.08 108.28 16.08C107.672 16.08 107.096 16.368 106.552 16.944C106.04 17.488 105.608 18.176 105.256 19.008C104.936 19.84 104.776 20.672 104.776 21.504V36H101.56V20.736C101.56 18.912 101.384 17.696 101.032 17.088C100.712 16.48 100.088 16.176 99.16 16.176C98.456 16.176 97.752 16.64 97.048 17.568C96.344 18.464 95.992 19.728 95.992 21.36V36H92.824ZM120.328 22.512V19.296H133.768V22.512H120.328ZM149.608 36L140.92 14.064H144.376L151.144 31.248L154.696 23.136C155.464 21.376 156.072 19.744 156.52 18.24C157 16.736 157.352 15.344 157.576 14.064H160.84C160.584 15.408 160.184 16.88 159.64 18.48C159.096 20.08 158.424 21.808 157.624 23.664L152.296 36H149.608ZM167.8 36V33.216H173.416V16.848H168.088V14.064H176.872V33.216H182.008V36H167.8ZM174.952 9.456C174.28 9.456 173.704 9.216 173.224 8.736C172.744 8.256 172.504 7.68 172.504 7.008C172.504 6.304 172.728 5.712 173.176 5.232C173.656 4.752 174.248 4.512 174.952 4.512C175.624 4.512 176.2 4.768 176.68 5.28C177.192 5.76 177.448 6.336 177.448 7.008C177.448 7.68 177.192 8.256 176.68 8.736C176.2 9.216 175.624 9.456 174.952 9.456ZM190.456 36V14.064H193.816V17.952C194.648 16.608 195.72 15.536 197.032 14.736C198.376 13.936 199.784 13.536 201.256 13.536C203.048 13.536 204.568 14.24 205.816 15.648C207.064 17.024 207.688 19.376 207.688 22.704V36H204.328V22.8C204.328 20.496 203.928 18.88 203.128 17.952C202.36 17.024 201.416 16.56 200.296 16.56C199.336 16.56 198.344 16.848 197.32 17.424C196.328 17.968 195.496 18.752 194.824 19.776C194.152 20.768 193.816 21.968 193.816 23.376V36H190.456ZM222.232 36.48C220.76 36.48 219.32 36.064 217.912 35.232C216.536 34.368 215.4 33.072 214.504 31.344C213.608 29.616 213.16 27.44 213.16 24.816C213.16 22.128 213.624 19.952 214.552 18.288C215.48 16.624 216.648 15.408 218.056 14.64C219.496 13.872 220.952 13.488 222.424 13.488C223.928 13.488 225.224 13.84 226.312 14.544C227.432 15.216 228.264 16.128 228.808 17.28V4.08H232.456V4.416C232.264 4.608 232.136 4.816 232.072 5.04C232.04 5.264 232.024 5.648 232.024 6.192L232.072 32.592C232.072 33.168 232.088 33.744 232.12 34.32C232.184 34.864 232.328 35.424 232.552 36H229.144C228.92 35.424 228.776 34.864 228.712 34.32C228.68 33.744 228.664 33.168 228.664 32.592C227.96 33.776 227.064 34.72 225.976 35.424C224.888 36.128 223.64 36.48 222.232 36.48ZM222.76 33.456C224.168 33.456 225.288 33.072 226.12 32.304C226.984 31.536 227.592 30.512 227.944 29.232C228.328 27.92 228.52 26.48 228.52 24.912C228.52 22.448 228.04 20.4 227.08 18.768C226.12 17.136 224.584 16.32 222.472 16.32C220.52 16.32 219.032 17.04 218.008 18.48C217.016 19.92 216.52 21.856 216.52 24.288C216.52 27.04 217.048 29.264 218.104 30.96C219.16 32.624 220.712 33.456 222.76 33.456ZM247 36.384C245.016 36.384 243.256 35.904 241.72 34.944C240.216 33.952 239.032 32.608 238.168 30.912C237.304 29.184 236.872 27.216 236.872 25.008C236.872 22.768 237.304 20.8 238.168 19.104C239.032 17.376 240.216 16.032 241.72 15.072C243.256 14.08 245.016 13.584 247 13.584C248.984 13.584 250.728 14.08 252.232 15.072C253.768 16.032 254.968 17.376 255.832 19.104C256.696 20.8 257.128 22.768 257.128 25.008C257.128 27.216 256.696 29.184 255.832 30.912C254.968 32.608 253.768 33.952 252.232 34.944C250.728 35.904 248.984 36.384 247 36.384ZM247 33.504C248.28 33.504 249.4 33.136 250.36 32.4C251.32 31.664 252.072 30.656 252.616 29.376C253.192 28.096 253.48 26.624 253.48 24.96C253.48 22.464 252.872 20.432 251.656 18.864C250.44 17.264 248.888 16.464 247 16.464C245.112 16.464 243.56 17.264 242.344 18.864C241.128 20.432 240.52 22.464 240.52 24.96C240.52 26.624 240.792 28.096 241.336 29.376C241.912 30.656 242.68 31.664 243.64 32.4C244.632 33.136 245.752 33.504 247 33.504ZM268.552 44.064L266.92 42.624C267.816 41.792 268.552 40.896 269.128 39.936C269.736 38.976 270.04 38.192 270.04 37.584C270.04 37.136 269.832 36.736 269.416 36.384C269.032 36.064 268.632 35.712 268.216 35.328C267.8 34.944 267.592 34.464 267.592 33.888C267.592 33.088 267.848 32.416 268.36 31.872C268.904 31.328 269.592 31.056 270.424 31.056C271.256 31.056 272.008 31.424 272.68 32.16C273.352 32.896 273.688 33.856 273.688 35.04C273.688 37.536 271.976 40.544 268.552 44.064ZM30.28 88.256V85.328C26.856 85.104 24.056 83.824 21.88 81.488L23.944 78.608C24.072 78.704 24.136 78.864 24.136 79.088C24.136 79.312 24.184 79.488 24.28 79.616C25.848 81.312 27.848 82.288 30.28 82.544V71.984C27.784 71.152 25.912 70.16 24.664 69.008C23.416 67.824 22.792 66.352 22.792 64.592C22.792 62.832 23.48 61.312 24.856 60.032C26.264 58.752 28.072 57.952 30.28 57.632V54.752H33.352C33.384 54.784 33.4 54.832 33.4 54.896C33.4 54.96 33.352 55.072 33.256 55.232C33.16 55.36 33.096 55.536 33.064 55.76V57.584C36.04 57.904 38.424 59.136 40.216 61.28L38.152 63.872C37.992 63.808 37.896 63.664 37.864 63.44C37.864 63.216 37.784 63.024 37.624 62.864C36.536 61.584 35.016 60.768 33.064 60.416V69.68C35.816 70.576 37.832 71.584 39.112 72.704C40.424 73.792 41.08 75.328 41.08 77.312C41.08 78.496 40.76 79.664 40.12 80.816C39.48 81.936 38.552 82.896 37.336 83.696C36.152 84.496 34.728 85.008 33.064 85.232V88.256H30.28ZM30.28 68.672V60.368C28.84 60.528 27.752 60.976 27.016 61.712C26.312 62.448 25.96 63.28 25.96 64.208C25.96 66.032 27.4 67.52 30.28 68.672ZM33.064 82.448C34.6 82.16 35.8 81.552 36.664 80.624C37.528 79.664 37.96 78.624 37.96 77.504C37.96 76.352 37.576 75.44 36.808 74.768C36.04 74.064 34.792 73.44 33.064 72.896V82.448ZM60.808 90.56C58.504 90.56 56.584 90.32 55.048 89.84C53.512 89.392 52.36 88.56 51.592 87.344C50.856 86.128 50.536 84.4 50.632 82.16L50.824 77.36C50.824 75.248 50.44 73.824 49.672 73.088C48.936 72.352 47.88 71.984 46.504 71.984H45.544V69.296H46.456C47.928 69.296 49.032 68.896 49.768 68.096C50.536 67.296 50.92 65.984 50.92 64.16L50.824 60.704C50.824 55.136 53.736 52.352 59.56 52.352H62.584V55.088H58.648C55.672 55.088 54.184 56.784 54.184 60.176L54.28 63.536C54.28 67.056 52.888 69.424 50.104 70.64C52.824 71.536 54.184 74.016 54.184 78.08L54.04 82.112C54.04 84.288 54.504 85.792 55.432 86.624C56.392 87.456 57.944 87.872 60.088 87.872H62.536V90.56H60.808ZM167.368 90.56H165.64V87.872H168.088C170.232 87.872 171.768 87.456 172.696 86.624C173.656 85.792 174.136 84.288 174.136 82.112L173.992 78.08C173.992 74.016 175.352 71.536 178.072 70.64C175.288 69.424 173.896 67.056 173.896 63.536L173.992 60.176C173.992 56.784 172.504 55.088 169.528 55.088H165.592V52.352H168.616C174.44 52.352 177.352 55.136 177.352 60.704L177.256 64.16C177.256 65.984 177.624 67.296 178.36 68.096C179.128 68.896 180.248 69.296 181.72 69.296H182.632V71.984H181.672C180.296 71.984 179.224 72.352 178.456 73.088C177.72 73.824 177.352 75.248 177.352 77.36L177.544 82.16C177.64 84.4 177.32 86.128 176.584 87.344C175.848 88.56 174.696 89.392 173.128 89.84C171.592 90.32 169.672 90.56 167.368 90.56ZM197.32 76.688L196.12 57.488C196.12 56.368 196.328 55.504 196.744 54.896C197.192 54.256 197.8 53.936 198.568 53.936C199.304 53.936 199.896 54.256 200.344 54.896C200.792 55.504 201.016 56.528 201.016 57.968L199.72 76.688H197.32ZM198.472 86.528C197.704 86.528 197.032 86.256 196.456 85.712C195.912 85.168 195.64 84.512 195.64 83.744C195.64 82.976 195.912 82.304 196.456 81.728C197.032 81.152 197.704 80.864 198.472 80.864C199.24 80.864 199.912 81.152 200.488 81.728C201.064 82.304 201.352 82.976 201.352 83.744C201.352 84.48 201.064 85.136 200.488 85.712C199.912 86.256 199.24 86.528 198.472 86.528ZM223.24 61.664L218.392 55.184L221.032 53.264L225.064 60.416L223.24 61.664ZM241.384 90.992L240.472 88.112C242.648 86.96 244.52 85.488 246.088 83.696C247.688 81.904 248.92 79.904 249.784 77.696C250.648 75.488 251.08 73.184 251.08 70.784C251.08 68.384 250.648 66.096 249.784 63.92C248.92 61.744 247.72 59.776 246.184 58.016C244.648 56.256 242.84 54.816 240.76 53.696L241.672 50.72C244.264 51.936 246.52 53.568 248.44 55.616C250.36 57.632 251.848 59.936 252.904 62.528C253.96 65.088 254.488 67.792 254.488 70.64C254.488 73.488 253.944 76.24 252.856 78.896C251.8 81.52 250.28 83.888 248.296 86C246.344 88.08 244.04 89.744 241.384 90.992Z" fill="#FEE7B9"/>
<path d="M77.608 86.528C75.432 86.528 73.624 85.712 72.184 84.08C70.744 82.448 70.04 79.856 70.072 76.304L70.12 64.064H73.48V76.304C73.48 79.088 73.96 81.024 74.92 82.112C75.912 83.2 77.096 83.744 78.472 83.744C79.496 83.744 80.456 83.472 81.352 82.928C82.248 82.384 82.968 81.552 83.512 80.432C84.088 79.312 84.376 77.888 84.376 76.16V64.064H87.736V82.592C87.736 83.168 87.752 83.744 87.784 84.32C87.848 84.864 87.992 85.424 88.216 86H84.904C84.68 85.456 84.536 84.896 84.472 84.32C84.44 83.744 84.424 83.184 84.424 82.64C83.72 83.856 82.76 84.816 81.544 85.52C80.36 86.192 79.048 86.528 77.608 86.528ZM103.048 86.48C99.336 86.48 96.232 85.328 93.736 83.024L95.656 79.76L95.944 79.328L96.232 79.52C96.296 79.776 96.36 80.048 96.424 80.336C96.52 80.592 96.744 80.912 97.096 81.296C97.768 81.968 98.568 82.528 99.496 82.976C100.456 83.392 101.672 83.6 103.144 83.6C104.904 83.6 106.264 83.296 107.224 82.688C108.216 82.048 108.712 81.184 108.712 80.096C108.712 79.168 108.296 78.4 107.464 77.792C106.664 77.184 105.24 76.544 103.192 75.872C100.664 75.136 98.648 74.224 97.144 73.136C95.672 72.048 94.936 70.688 94.936 69.056C94.936 67.392 95.608 66.064 96.952 65.072C98.328 64.048 100.344 63.536 103 63.536C105.048 63.536 106.744 63.824 108.088 64.4C109.432 64.976 110.648 65.84 111.736 66.992L109.768 69.392L109.432 69.776L109.192 69.536C109.16 69.28 109.08 69.04 108.952 68.816C108.856 68.56 108.632 68.256 108.28 67.904C107.544 67.328 106.712 66.896 105.784 66.608C104.856 66.288 103.96 66.128 103.096 66.128C101.816 66.128 100.712 66.352 99.784 66.8C98.856 67.248 98.392 67.936 98.392 68.864C98.392 69.344 98.552 69.824 98.872 70.304C99.224 70.752 99.848 71.216 100.744 71.696C101.64 72.144 102.92 72.608 104.584 73.088C107.336 73.92 109.272 74.832 110.392 75.824C111.544 76.784 112.12 78.048 112.12 79.616C112.12 80.832 111.784 81.968 111.112 83.024C110.472 84.08 109.48 84.928 108.136 85.568C106.792 86.176 105.096 86.48 103.048 86.48ZM128.056 86.48C124.856 86.48 122.264 85.504 120.28 83.552C118.328 81.6 117.352 78.784 117.352 75.104C117.352 72.608 117.8 70.512 118.696 68.816C119.624 67.088 120.84 65.776 122.344 64.88C123.88 63.984 125.576 63.536 127.432 63.536C129.096 63.536 130.6 63.904 131.944 64.64C133.288 65.376 134.36 66.512 135.16 68.048C135.96 69.584 136.36 71.552 136.36 73.952C136.36 74.208 136.344 74.48 136.312 74.768C136.312 75.024 136.296 75.28 136.264 75.536H120.664C120.792 78.352 121.576 80.416 123.016 81.728C124.488 83.04 126.2 83.696 128.152 83.696C130.456 83.696 132.344 82.88 133.816 81.248L135.736 83.12C133.88 85.36 131.32 86.48 128.056 86.48ZM120.808 72.848H132.856C132.856 70.8 132.328 69.184 131.272 68C130.248 66.784 128.888 66.176 127.192 66.176C125.688 66.176 124.328 66.72 123.112 67.808C121.896 68.864 121.128 70.544 120.808 72.848ZM144.712 64.064H148.312L148.216 68.096C148.824 66.624 149.768 65.504 151.048 64.736C152.328 63.936 153.704 63.536 155.176 63.536C157.512 63.536 159.448 64.336 160.984 65.936L159.448 68.624L159.256 69.056L158.92 68.864C158.856 68.608 158.76 68.368 158.632 68.144C158.504 67.92 158.232 67.648 157.816 67.328C157.304 67.008 156.824 66.8 156.376 66.704C155.96 66.576 155.48 66.512 154.936 66.512C153.88 66.512 152.824 66.784 151.768 67.328C150.744 67.872 149.896 68.72 149.224 69.872C148.552 71.024 148.216 72.528 148.216 74.384V86.048H144.712V64.064Z" fill="#54BEDF"/>
</svg>
