<svg width="1936" height="535" viewBox="0 0 1936 535" fill="none" xmlns="http://www.w3.org/2000/svg">
<path d="M278 377.224L15 173.812V516H1935V293.578H1900L1772 162.406L1588 331.599L1510 215.635L1410 346.807L900 293.578L758 151L608 293.578L482 266.964L278 377.224Z" fill="#67594B"/>
<path d="M211 141.079L15 345.933V516H1935V150.742L1899 210.652L1857 173.933L1659 326.607L1271 226.112L1143 266.697L1009 100.494L979 112.09L913 0L667 266.697L581 210.652L443 326.607L211 141.079Z" fill="#534130"/>
<path d="M190.848 280L15 412.5V516H1935V360L1903.94 400L1755.67 304L1603.4 388L1571.34 445L1511.23 412L1244.75 304L1118.52 430L848.035 337L617.618 445L443.303 280L305.054 360L190.848 280Z" fill="#1B120B"/>
</svg>
