<svg width="1921" height="957" viewBox="0 0 1921 957" fill="none" xmlns="http://www.w3.org/2000/svg">
<path d="M504.022 471.037C508.522 388.453 490.168 366.754 475.5 371.5C472.5 345.737 462.754 365.093 440 371.5C418 286 312 286 292 286C274 244 241.438 211.66 156 220C168.745 149.637 41.4726 104.304 0.5 130.499C0.5 186.5 1.00001 678 1.00001 782C220.019 782 621.854 793.132 504.022 471.037Z" fill="url(#paint0_linear_101_79)" fill-opacity="0.6"/>
<path d="M504.022 552.949C508.522 495.423 474.185 493.604 459.517 496.91C442 461.667 406.015 457.204 383.261 461.667C365 390 280.002 386.561 264 394C185.459 296.93 110 282 0 324V929C16 952 123.488 963.36 164 893.414C231.223 890.752 286.662 865.205 301 810C420.261 810 621.854 777.314 504.022 552.949Z" fill="url(#paint1_linear_101_79)" fill-opacity="0.95"/>
<path d="M407 586C403.8 516.4 345.667 476.333 317 465C265.67 428.568 233.998 411.245 148 412C96.9677 312.807 6 297.5 0.999997 302C0.999985 426.5 0.500007 826 0.5 902.617C28.0238 899.322 67.0147 888.463 118 850C144 890 266 860 290 792C382 818 416.188 785.115 471 741C481 718 496 662.4 476 624C456 585.6 421.667 582.667 407 586Z" fill="url(#paint2_radial_101_79)"/>
<path d="M1409.97 444.084C1405.47 386.084 1439.81 384.251 1454.47 387.584C1451.97 370.084 1470.97 351.584 1493.72 356.084C1517.67 306.801 1592 290.5 1608 298C1673.14 218.796 1712.42 191.206 1790 188C1819.27 106.025 1850.48 82.6203 1920 62V776C1855.27 776 1479.5 706.084 1439.5 706.084C1345.03 681.664 1326.98 603.43 1409.97 444.084Z" fill="url(#paint3_linear_101_79)" fill-opacity="0.6"/>
<path d="M1428.77 500.927C1448.81 452.943 1500.19 442.446 1514.89 446.611C1514.89 425.408 1528 400.31 1558 394.732C1602 236 1772.78 289 1783 289C1828.38 223.608 1858.68 201.09 1921 185V941C1858 971 1809.95 954.93 1766 911C1683 929 1654 895 1629 864C1572 884 1468.99 869.837 1428.77 816C1323.27 833.626 1278.69 816.319 1223 741C1212.98 712.26 1408.72 548.91 1428.77 500.927Z" fill="url(#paint4_linear_101_79)" fill-opacity="0.8"/>
<path d="M1437.86 624C1457.86 585.6 1492.19 582.667 1506.86 586C1526.91 528.667 1595 421.8 1707 453C1720.33 396.333 1783.7 291 1920.5 323L1921 924C1883 919.5 1841 907 1819 865C1801.5 912.5 1646 908.2 1610 837C1579.5 861 1392 830 1384 736C1374 713 1417.86 662.4 1437.86 624Z" fill="url(#paint5_radial_101_79)"/>
<path d="M354.114 212.162L354.453 214.822L357.114 215.162L354.453 215.501L354.114 218.162L353.774 215.501L351.114 215.162L353.774 214.822L354.114 212.162Z" fill="#FEE7B9"/>
<path d="M354.114 212.162L354.453 214.822L357.114 215.162L354.453 215.501L354.114 218.162L353.774 215.501L351.114 215.162L353.774 214.822L354.114 212.162Z" fill="url(#paint6_linear_101_79)" fill-opacity="0.2"/>
<path d="M1454.33 65.1278L1451.71 64.5265L1450.48 66.9057L1451.08 64.2918L1448.7 63.0535L1451.31 63.6548L1452.55 61.2756L1451.95 63.8895L1454.33 65.1278Z" fill="#FEE7B9"/>
<path d="M1454.33 65.1278L1451.71 64.5265L1450.48 66.9057L1451.08 64.2918L1448.7 63.0535L1451.31 63.6548L1452.55 61.2756L1451.95 63.8895L1454.33 65.1278Z" fill="url(#paint7_linear_101_79)" fill-opacity="0.2"/>
<path d="M462.51 107.274L464.189 111.79L469.002 111.558L464.486 113.237L464.717 118.05L463.038 113.534L458.226 113.765L462.742 112.086L462.51 107.274Z" fill="#FEE7B9"/>
<path d="M462.51 107.274L464.189 111.79L469.002 111.558L464.486 113.237L464.717 118.05L463.038 113.534L458.226 113.765L462.742 112.086L462.51 107.274Z" fill="url(#paint8_linear_101_79)" fill-opacity="0.2"/>
<path d="M1515.27 203.101L1510.46 203.116L1509.01 207.712L1509 202.893L1504.4 201.447L1509.22 201.432L1510.66 196.837L1510.68 201.655L1515.27 203.101Z" fill="#FEE7B9"/>
<path d="M1515.27 203.101L1510.46 203.116L1509.01 207.712L1509 202.893L1504.4 201.447L1509.22 201.432L1510.66 196.837L1510.68 201.655L1515.27 203.101Z" fill="url(#paint9_linear_101_79)" fill-opacity="0.2"/>
<path d="M1494.82 294.254L1490 294.268L1488.55 298.864L1488.54 294.046L1483.94 292.599L1488.76 292.585L1490.21 287.989L1490.22 292.807L1494.82 294.254Z" fill="#FEE7B9"/>
<path d="M1494.82 294.254L1490 294.268L1488.55 298.864L1488.54 294.046L1483.94 292.599L1488.76 292.585L1490.21 287.989L1490.22 292.807L1494.82 294.254Z" fill="url(#paint10_linear_101_79)" fill-opacity="0.2"/>
<path d="M330.217 242.152L328.084 249.526L334.124 254.265L326.749 252.132L322.01 258.172L324.144 250.797L318.104 246.058L325.478 248.192L330.217 242.152Z" fill="#FEE7B9"/>
<path d="M330.217 242.152L328.084 249.526L334.124 254.265L326.749 252.132L322.01 258.172L324.144 250.797L318.104 246.058L325.478 248.192L330.217 242.152Z" fill="url(#paint11_linear_101_79)" fill-opacity="0.2"/>
<path d="M1434.45 32.3369L1428.27 27.7854L1421.73 31.8145L1426.28 25.6321L1422.25 19.0973L1428.44 23.6488L1434.97 19.6197L1430.42 25.8021L1434.45 32.3369Z" fill="#FEE7B9"/>
<path d="M1434.45 32.3369L1428.27 27.7854L1421.73 31.8145L1426.28 25.6321L1422.25 19.0973L1428.44 23.6488L1434.97 19.6197L1430.42 25.8021L1434.45 32.3369Z" fill="url(#paint12_linear_101_79)" fill-opacity="0.2"/>
<path d="M339.466 124.1L336.393 129.392L339.426 134.707L334.135 131.634L328.82 134.667L331.893 129.375L328.86 124.06L334.151 127.134L339.466 124.1Z" fill="#FEE7B9"/>
<path d="M339.466 124.1L336.393 129.392L339.426 134.707L334.135 131.634L328.82 134.667L331.893 129.375L328.86 124.06L334.151 127.134L339.466 124.1Z" fill="url(#paint13_linear_101_79)" fill-opacity="0.2"/>
<path d="M1542.02 81.8269L1538.12 77.1138L1532.08 78.1227L1536.8 74.2196L1535.79 68.1839L1539.69 72.8971L1545.73 71.8882L1541.01 75.7912L1542.02 81.8269Z" fill="#FEE7B9"/>
<path d="M1542.02 81.8269L1538.12 77.1138L1532.08 78.1227L1536.8 74.2196L1535.79 68.1839L1539.69 72.8971L1545.73 71.8882L1541.01 75.7912L1542.02 81.8269Z" fill="url(#paint14_linear_101_79)" fill-opacity="0.2"/>
<path d="M380.593 40.4086L385.878 49.0366L395.867 50.6415L387.239 55.9257L385.634 65.9152L380.35 57.2872L370.36 55.6823L378.988 50.3981L380.593 40.4086Z" fill="#FEE7B9"/>
<path d="M380.593 40.4086L385.878 49.0366L395.867 50.6415L387.239 55.9257L385.634 65.9152L380.35 57.2872L370.36 55.6823L378.988 50.3981L380.593 40.4086Z" fill="url(#paint15_linear_101_79)" fill-opacity="0.2"/>
<path d="M1606.34 149.351L1596.41 151.327L1591.45 160.146L1589.48 150.223L1580.66 145.264L1590.58 143.288L1595.54 134.469L1597.52 144.392L1606.34 149.351Z" fill="#FEE7B9"/>
<path d="M1606.34 149.351L1596.41 151.327L1591.45 160.146L1589.48 150.223L1580.66 145.264L1590.58 143.288L1595.54 134.469L1597.52 144.392L1606.34 149.351Z" fill="url(#paint16_linear_101_79)" fill-opacity="0.2"/>
<path d="M404.614 149.162L407.053 158.222L416.114 160.662L407.053 163.101L404.614 172.162L402.174 163.101L393.114 160.662L402.174 158.222L404.614 149.162Z" fill="#FEE7B9"/>
<path d="M404.614 149.162L407.053 158.222L416.114 160.662L407.053 163.101L404.614 172.162L402.174 163.101L393.114 160.662L402.174 158.222L404.614 149.162Z" fill="url(#paint17_linear_101_79)" fill-opacity="0.2"/>
<path d="M1495.99 134.294L1486.64 133.45L1481.22 141.109L1482.06 131.764L1474.4 126.342L1483.75 127.185L1489.17 119.527L1488.33 128.872L1495.99 134.294Z" fill="#FEE7B9"/>
<path d="M1495.99 134.294L1486.64 133.45L1481.22 141.109L1482.06 131.764L1474.4 126.342L1483.75 127.185L1489.17 119.527L1488.33 128.872L1495.99 134.294Z" fill="url(#paint18_linear_101_79)" fill-opacity="0.2"/>
<path d="M393.114 243.162L393.892 247.384L398.114 248.162L393.892 248.94L393.114 253.162L392.336 248.94L388.114 248.162L392.336 247.384L393.114 243.162Z" fill="#FEE7B9"/>
<path d="M393.114 243.162L393.892 247.384L398.114 248.162L393.892 248.94L393.114 253.162L392.336 248.94L388.114 248.162L392.336 247.384L393.114 243.162Z" fill="url(#paint19_linear_101_79)" fill-opacity="0.2"/>
<path d="M1411.76 91.0059L1407.53 90.2761L1405.34 93.9691L1406.07 89.7383L1402.37 87.5488L1406.6 88.2786L1408.79 84.5857L1408.06 88.8164L1411.76 91.0059Z" fill="#FEE7B9"/>
<path d="M1411.76 91.0059L1407.53 90.2761L1405.34 93.9691L1406.07 89.7383L1402.37 87.5488L1406.6 88.2786L1408.79 84.5857L1408.06 88.8164L1411.76 91.0059Z" fill="url(#paint20_linear_101_79)" fill-opacity="0.2"/>
<path d="M1359.23 49.3108L1354.99 48.5811L1352.81 52.274L1353.54 48.0433L1349.84 45.8537L1354.07 46.5835L1356.26 42.8906L1355.53 47.1213L1359.23 49.3108Z" fill="#FEE7B9"/>
<path d="M1359.23 49.3108L1354.99 48.5811L1352.81 52.274L1353.54 48.0433L1349.84 45.8537L1354.07 46.5835L1356.26 42.8906L1355.53 47.1213L1359.23 49.3108Z" fill="url(#paint21_linear_101_79)" fill-opacity="0.2"/>
<path d="M453.543 34.6804L452.373 44.0598L461.218 47.3924L451.839 46.2222L448.506 55.0673L449.677 45.6879L440.831 42.3553L450.211 43.5256L453.543 34.6804Z" fill="#FEE7B9"/>
<path d="M453.543 34.6804L452.373 44.0598L461.218 47.3924L451.839 46.2222L448.506 55.0673L449.677 45.6879L440.831 42.3553L450.211 43.5256L453.543 34.6804Z" fill="url(#paint22_linear_101_79)" fill-opacity="0.2"/>
<path d="M1591.97 255.76L1586.68 254.46L1582.25 257.631L1583.55 252.34L1580.38 247.91L1585.67 249.209L1590.1 246.039L1588.8 251.329L1591.97 255.76Z" fill="#FEE7B9"/>
<path d="M1591.97 255.76L1586.68 254.46L1582.25 257.631L1583.55 252.34L1580.38 247.91L1585.67 249.209L1590.1 246.039L1588.8 251.329L1591.97 255.76Z" fill="url(#paint23_linear_101_79)" fill-opacity="0.2"/>
<path d="M1555.93 306.504L1546.11 304.091L1537.88 309.98L1540.29 300.154L1534.4 291.926L1544.23 294.339L1552.46 288.451L1550.04 298.276L1555.93 306.504Z" fill="#FEE7B9"/>
<path d="M1555.93 306.504L1546.11 304.091L1537.88 309.98L1540.29 300.154L1534.4 291.926L1544.23 294.339L1552.46 288.451L1550.04 298.276L1555.93 306.504Z" fill="url(#paint24_linear_101_79)" fill-opacity="0.2"/>
<path d="M1802.47 78.0173L1804.55 76.3238L1803.43 73.8854L1805.12 75.9653L1807.56 74.8482L1805.48 76.5417L1806.6 78.9801L1804.91 76.9002L1802.47 78.0173Z" fill="#FEE7B9"/>
<path d="M1802.47 78.0173L1804.55 76.3238L1803.43 73.8854L1805.12 75.9653L1807.56 74.8482L1805.48 76.5417L1806.6 78.9801L1804.91 76.9002L1802.47 78.0173Z" fill="url(#paint25_linear_101_79)" fill-opacity="0.2"/>
<path d="M1656.15 41.3766L1659.1 37.5654L1656.36 33.6013L1660.17 36.5489L1664.13 33.8105L1661.19 37.6216L1663.93 41.5858L1660.11 38.6382L1656.15 41.3766Z" fill="#FEE7B9"/>
<path d="M1656.15 41.3766L1659.1 37.5654L1656.36 33.6013L1660.17 36.5489L1664.13 33.8105L1661.19 37.6216L1663.93 41.5858L1660.11 38.6382L1656.15 41.3766Z" fill="url(#paint26_linear_101_79)" fill-opacity="0.2"/>
<path d="M1840.55 82.4678L1847.94 80.3842L1848.78 72.7525L1850.86 80.1414L1858.49 80.9752L1851.1 83.0588L1850.27 90.6905L1848.19 83.3015L1840.55 82.4678Z" fill="#FEE7B9"/>
<path d="M1840.55 82.4678L1847.94 80.3842L1848.78 72.7525L1850.86 80.1414L1858.49 80.9752L1851.1 83.0588L1850.27 90.6905L1848.19 83.3015L1840.55 82.4678Z" fill="url(#paint27_linear_101_79)" fill-opacity="0.2"/>
<path d="M1735.43 136.968L1741.55 136.783L1744.46 131.4L1744.64 137.517L1750.02 140.427L1743.91 140.613L1741 145.996L1740.81 139.879L1735.43 136.968Z" fill="#FEE7B9"/>
<path d="M1735.43 136.968L1741.55 136.783L1744.46 131.4L1744.64 137.517L1750.02 140.427L1743.91 140.613L1741 145.996L1740.81 139.879L1735.43 136.968Z" fill="url(#paint28_linear_101_79)" fill-opacity="0.2"/>
<path d="M1642.64 146.252L1647.18 137.208L1643.26 127.878L1652.31 132.413L1661.64 128.499L1657.1 137.544L1661.02 146.874L1651.97 142.338L1642.64 146.252Z" fill="#FEE7B9"/>
<path d="M1642.64 146.252L1647.18 137.208L1643.26 127.878L1652.31 132.413L1661.64 128.499L1657.1 137.544L1661.02 146.874L1651.97 142.338L1642.64 146.252Z" fill="url(#paint29_linear_101_79)" fill-opacity="0.2"/>
<path d="M1722.3 68.4128L1728.7 61.5557L1725.99 52.5737L1732.85 58.9786L1741.83 56.2643L1735.42 63.1215L1738.14 72.1035L1731.28 65.6986L1722.3 68.4128Z" fill="#FEE7B9"/>
<path d="M1722.3 68.4128L1728.7 61.5557L1725.99 52.5737L1732.85 58.9786L1741.83 56.2643L1735.42 63.1215L1738.14 72.1035L1731.28 65.6986L1722.3 68.4128Z" fill="url(#paint30_linear_101_79)" fill-opacity="0.2"/>
<path d="M1808.19 28.5276L1811.37 25.637L1809.8 21.641L1812.69 24.8153L1816.68 23.2456L1813.51 26.1362L1815.08 30.1322L1812.19 26.9579L1808.19 28.5276Z" fill="#FEE7B9"/>
<path d="M1808.19 28.5276L1811.37 25.637L1809.8 21.641L1812.69 24.8153L1816.68 23.2456L1813.51 26.1362L1815.08 30.1322L1812.19 26.9579L1808.19 28.5276Z" fill="url(#paint31_linear_101_79)" fill-opacity="0.2"/>
<path d="M1599.25 87.3338L1607.83 83.3733L1605.99 74.1024L1609.95 82.6848L1619.22 80.8426L1610.63 84.8031L1612.48 94.074L1608.52 85.4916L1599.25 87.3338Z" fill="#FEE7B9"/>
<path d="M1599.25 87.3338L1607.83 83.3733L1605.99 74.1024L1609.95 82.6848L1619.22 80.8426L1610.63 84.8031L1612.48 94.074L1608.52 85.4916L1599.25 87.3338Z" fill="url(#paint32_linear_101_79)" fill-opacity="0.2"/>
<path d="M1647.82 225.342L1637.99 222.929L1629.76 228.818L1632.18 218.992L1626.29 210.764L1636.11 213.177L1644.34 207.289L1641.93 217.115L1647.82 225.342Z" fill="#FEE7B9"/>
<path d="M1647.82 225.342L1637.99 222.929L1629.76 228.818L1632.18 218.992L1626.29 210.764L1636.11 213.177L1644.34 207.289L1641.93 217.115L1647.82 225.342Z" fill="url(#paint33_linear_101_79)" fill-opacity="0.2"/>
<path d="M135.214 52.1278L132.6 51.5265L131.362 53.9057L131.963 51.2918L129.584 50.0535L132.198 50.6548L133.436 48.2756L132.835 50.8895L135.214 52.1278Z" fill="#FEE7B9"/>
<path d="M135.214 52.1278L132.6 51.5265L131.362 53.9057L131.963 51.2918L129.584 50.0535L132.198 50.6548L133.436 48.2756L132.835 50.8895L135.214 52.1278Z" fill="url(#paint34_linear_101_79)" fill-opacity="0.2"/>
<path d="M196.161 190.102L191.343 190.116L189.897 194.712L189.882 189.894L185.286 188.447L190.105 188.433L191.551 183.837L191.566 188.655L196.161 190.102Z" fill="#FEE7B9"/>
<path d="M196.161 190.102L191.343 190.116L189.897 194.712L189.882 189.894L185.286 188.447L190.105 188.433L191.551 183.837L191.566 188.655L196.161 190.102Z" fill="url(#paint35_linear_101_79)" fill-opacity="0.2"/>
<path d="M300.702 43.0917L295.884 43.1062L294.437 47.702L294.423 42.8839L289.827 41.4374L294.645 41.4229L296.092 36.8271L296.106 41.6452L300.702 43.0917Z" fill="#FEE7B9"/>
<path d="M300.702 43.0917L295.884 43.1062L294.437 47.702L294.423 42.8839L289.827 41.4374L294.645 41.4229L296.092 36.8271L296.106 41.6452L300.702 43.0917Z" fill="url(#paint36_linear_101_79)" fill-opacity="0.2"/>
<path d="M115.335 19.3369L109.152 14.7854L102.617 18.8145L107.169 12.6321L103.14 6.0973L109.322 10.6488L115.857 6.6197L111.305 12.8021L115.335 19.3369Z" fill="#FEE7B9"/>
<path d="M115.335 19.3369L109.152 14.7854L102.617 18.8145L107.169 12.6321L103.14 6.0973L109.322 10.6488L115.857 6.6197L111.305 12.8021L115.335 19.3369Z" fill="url(#paint37_linear_101_79)" fill-opacity="0.2"/>
<path d="M222.91 68.8272L219.007 64.114L212.971 65.1229L217.684 61.2199L216.675 55.1842L220.578 59.8974L226.614 58.8885L221.901 62.7915L222.91 68.8272Z" fill="#FEE7B9"/>
<path d="M222.91 68.8272L219.007 64.114L212.971 65.1229L217.684 61.2199L216.675 55.1842L220.578 59.8974L226.614 58.8885L221.901 62.7915L222.91 68.8272Z" fill="url(#paint38_linear_101_79)" fill-opacity="0.2"/>
<path d="M287.223 136.351L277.3 138.327L272.341 147.146L270.365 137.223L261.547 132.264L271.469 130.288L276.429 121.469L278.405 131.392L287.223 136.351Z" fill="#FEE7B9"/>
<path d="M287.223 136.351L277.3 138.327L272.341 147.146L270.365 137.223L261.547 132.264L271.469 130.288L276.429 121.469L278.405 131.392L287.223 136.351Z" fill="url(#paint39_linear_101_79)" fill-opacity="0.2"/>
<path d="M176.871 121.294L167.526 120.45L162.105 128.109L162.948 118.764L155.29 113.342L164.635 114.185L170.056 106.527L169.213 115.872L176.871 121.294Z" fill="#FEE7B9"/>
<path d="M176.871 121.294L167.526 120.45L162.105 128.109L162.948 118.764L155.29 113.342L164.635 114.185L170.056 106.527L169.213 115.872L176.871 121.294Z" fill="url(#paint40_linear_101_79)" fill-opacity="0.2"/>
<path d="M92.6429 78.0059L88.4122 77.2761L86.2227 80.9691L86.9524 76.7383L83.2595 74.5488L87.4902 75.2786L89.6798 71.5857L88.95 75.8164L92.6429 78.0059Z" fill="#FEE7B9"/>
<path d="M92.6429 78.0059L88.4122 77.2761L86.2227 80.9691L86.9524 76.7383L83.2595 74.5488L87.4902 75.2786L89.6798 71.5857L88.95 75.8164L92.6429 78.0059Z" fill="url(#paint41_linear_101_79)" fill-opacity="0.2"/>
<path d="M40.112 36.3106L35.8813 35.5808L33.6918 39.2738L34.4216 35.043L30.7286 32.8535L34.9594 33.5833L37.1489 29.8903L36.4191 34.1211L40.112 36.3106Z" fill="#FEE7B9"/>
<path d="M40.112 36.3106L35.8813 35.5808L33.6918 39.2738L34.4216 35.043L30.7286 32.8535L34.9594 33.5833L37.1489 29.8903L36.4191 34.1211L40.112 36.3106Z" fill="url(#paint42_linear_101_79)" fill-opacity="0.2"/>
<path d="M272.857 242.76L267.567 241.46L263.136 244.631L264.436 239.34L261.265 234.91L266.556 236.209L270.986 233.039L269.687 238.329L272.857 242.76Z" fill="#FEE7B9"/>
<path d="M272.857 242.76L267.567 241.46L263.136 244.631L264.436 239.34L261.265 234.91L266.556 236.209L270.986 233.039L269.687 238.329L272.857 242.76Z" fill="url(#paint43_linear_101_79)" fill-opacity="0.2"/>
<path d="M45.8176 87.3422L35.992 84.9293L27.7643 90.8177L30.1772 80.992L24.2889 72.7644L34.1146 75.1773L42.3422 69.2889L39.9293 79.1146L45.8176 87.3422Z" fill="#FEE7B9"/>
<path d="M45.8176 87.3422L35.992 84.9293L27.7643 90.8177L30.1772 80.992L24.2889 72.7644L34.1146 75.1773L42.3422 69.2889L39.9293 79.1146L45.8176 87.3422Z" fill="url(#paint44_linear_101_79)" fill-opacity="0.2"/>
<path d="M448.236 243.987L441.144 251.203L442.005 261.284L434.789 254.192L424.709 255.054L431.801 247.838L430.939 237.757L438.155 244.849L448.236 243.987Z" fill="#FEE7B9"/>
<path d="M448.236 243.987L441.144 251.203L442.005 261.284L434.789 254.192L424.709 255.054L431.801 247.838L430.939 237.757L438.155 244.849L448.236 243.987Z" fill="url(#paint45_linear_101_79)" fill-opacity="0.2"/>
<path d="M1391.81 142.282L1387.49 133.133L1377.74 130.456L1386.88 126.137L1389.56 116.38L1393.88 125.529L1403.64 128.206L1394.49 132.525L1391.81 142.282Z" fill="#FEE7B9"/>
<path d="M1391.81 142.282L1387.49 133.133L1377.74 130.456L1386.88 126.137L1389.56 116.38L1393.88 125.529L1403.64 128.206L1394.49 132.525L1391.81 142.282Z" fill="url(#paint46_linear_101_79)" fill-opacity="0.2"/>
<defs>
<linearGradient id="paint0_linear_101_79" x1="331.002" y1="602.033" x2="641.209" y2="355.681" gradientUnits="userSpaceOnUse">
<stop stop-color="#1B120B"/>
<stop offset="1" stop-color="#A46A34" stop-opacity="0.1"/>
</linearGradient>
<linearGradient id="paint1_linear_101_79" x1="331.002" y1="644.198" x2="550.958" y2="393.432" gradientUnits="userSpaceOnUse">
<stop stop-color="#1B120B"/>
<stop offset="1" stop-color="#A46A34" stop-opacity="0.1"/>
</linearGradient>
<radialGradient id="paint2_radial_101_79" cx="0" cy="0" r="1" gradientUnits="userSpaceOnUse" gradientTransform="translate(58 654) rotate(-22.0337) scale(503.795 393.402)">
<stop stop-color="#A46A34" stop-opacity="0.23"/>
<stop offset="1" stop-color="#A46A34" stop-opacity="0.59"/>
</radialGradient>
<linearGradient id="paint3_linear_101_79" x1="1582.97" y1="536.084" x2="1360.97" y2="285.085" gradientUnits="userSpaceOnUse">
<stop stop-color="#1B120B"/>
<stop offset="1" stop-color="#A46A34" stop-opacity="0.1"/>
</linearGradient>
<linearGradient id="paint4_linear_101_79" x1="1611.03" y1="709.761" x2="1332.87" y2="457.513" gradientUnits="userSpaceOnUse">
<stop stop-color="#1B120B"/>
<stop offset="1" stop-color="#A46A34" stop-opacity="0.1"/>
</linearGradient>
<radialGradient id="paint5_radial_101_79" cx="0" cy="0" r="1" gradientUnits="userSpaceOnUse" gradientTransform="translate(1832 664) rotate(178.4) scale(358.14 279.663)">
<stop stop-color="#A46A34" stop-opacity="0.59"/>
<stop offset="1" stop-color="#A46A34" stop-opacity="0.23"/>
</radialGradient>
<linearGradient id="paint6_linear_101_79" x1="354.114" y1="212.162" x2="354.114" y2="218.162" gradientUnits="userSpaceOnUse">
<stop stop-color="#FEE7B9"/>
<stop offset="1" stop-opacity="0"/>
</linearGradient>
<linearGradient id="paint7_linear_101_79" x1="1454.33" y1="65.1278" x2="1448.7" y2="63.0535" gradientUnits="userSpaceOnUse">
<stop stop-color="#FEE7B9"/>
<stop offset="1" stop-opacity="0"/>
</linearGradient>
<linearGradient id="paint8_linear_101_79" x1="462.51" y1="107.274" x2="464.717" y2="118.05" gradientUnits="userSpaceOnUse">
<stop stop-color="#FEE7B9"/>
<stop offset="1" stop-opacity="0"/>
</linearGradient>
<linearGradient id="paint9_linear_101_79" x1="1515.27" y1="203.101" x2="1504.4" y2="201.447" gradientUnits="userSpaceOnUse">
<stop stop-color="#FEE7B9"/>
<stop offset="1" stop-opacity="0"/>
</linearGradient>
<linearGradient id="paint10_linear_101_79" x1="1494.82" y1="294.254" x2="1483.94" y2="292.599" gradientUnits="userSpaceOnUse">
<stop stop-color="#FEE7B9"/>
<stop offset="1" stop-opacity="0"/>
</linearGradient>
<linearGradient id="paint11_linear_101_79" x1="330.217" y1="242.152" x2="322.01" y2="258.172" gradientUnits="userSpaceOnUse">
<stop stop-color="#FEE7B9"/>
<stop offset="1" stop-opacity="0"/>
</linearGradient>
<linearGradient id="paint12_linear_101_79" x1="1434.45" y1="32.3369" x2="1422.25" y2="19.0973" gradientUnits="userSpaceOnUse">
<stop stop-color="#FEE7B9"/>
<stop offset="1" stop-opacity="0"/>
</linearGradient>
<linearGradient id="paint13_linear_101_79" x1="339.466" y1="124.1" x2="328.82" y2="134.667" gradientUnits="userSpaceOnUse">
<stop stop-color="#FEE7B9"/>
<stop offset="1" stop-opacity="0"/>
</linearGradient>
<linearGradient id="paint14_linear_101_79" x1="1542.02" y1="81.8269" x2="1535.79" y2="68.1839" gradientUnits="userSpaceOnUse">
<stop stop-color="#FEE7B9"/>
<stop offset="1" stop-opacity="0"/>
</linearGradient>
<linearGradient id="paint15_linear_101_79" x1="380.593" y1="40.4086" x2="385.634" y2="65.9152" gradientUnits="userSpaceOnUse">
<stop stop-color="#FEE7B9"/>
<stop offset="1" stop-opacity="0"/>
</linearGradient>
<linearGradient id="paint16_linear_101_79" x1="1606.34" y1="149.351" x2="1580.66" y2="145.264" gradientUnits="userSpaceOnUse">
<stop stop-color="#FEE7B9"/>
<stop offset="1" stop-opacity="0"/>
</linearGradient>
<linearGradient id="paint17_linear_101_79" x1="404.614" y1="149.162" x2="404.614" y2="172.162" gradientUnits="userSpaceOnUse">
<stop stop-color="#FEE7B9"/>
<stop offset="1" stop-opacity="0"/>
</linearGradient>
<linearGradient id="paint18_linear_101_79" x1="1495.99" y1="134.294" x2="1474.4" y2="126.342" gradientUnits="userSpaceOnUse">
<stop stop-color="#FEE7B9"/>
<stop offset="1" stop-opacity="0"/>
</linearGradient>
<linearGradient id="paint19_linear_101_79" x1="393.114" y1="243.162" x2="393.114" y2="253.162" gradientUnits="userSpaceOnUse">
<stop stop-color="#FEE7B9"/>
<stop offset="1" stop-opacity="0"/>
</linearGradient>
<linearGradient id="paint20_linear_101_79" x1="1411.76" y1="91.0059" x2="1402.37" y2="87.5488" gradientUnits="userSpaceOnUse">
<stop stop-color="#FEE7B9"/>
<stop offset="1" stop-opacity="0"/>
</linearGradient>
<linearGradient id="paint21_linear_101_79" x1="1359.23" y1="49.3108" x2="1349.84" y2="45.8537" gradientUnits="userSpaceOnUse">
<stop stop-color="#FEE7B9"/>
<stop offset="1" stop-opacity="0"/>
</linearGradient>
<linearGradient id="paint22_linear_101_79" x1="453.543" y1="34.6804" x2="448.506" y2="55.0673" gradientUnits="userSpaceOnUse">
<stop stop-color="#FEE7B9"/>
<stop offset="1" stop-opacity="0"/>
</linearGradient>
<linearGradient id="paint23_linear_101_79" x1="1591.97" y1="255.76" x2="1580.38" y2="247.91" gradientUnits="userSpaceOnUse">
<stop stop-color="#FEE7B9"/>
<stop offset="1" stop-opacity="0"/>
</linearGradient>
<linearGradient id="paint24_linear_101_79" x1="1555.93" y1="306.504" x2="1534.4" y2="291.926" gradientUnits="userSpaceOnUse">
<stop stop-color="#FEE7B9"/>
<stop offset="1" stop-opacity="0"/>
</linearGradient>
<linearGradient id="paint25_linear_101_79" x1="1802.47" y1="78.0173" x2="1807.56" y2="74.8482" gradientUnits="userSpaceOnUse">
<stop stop-color="#FEE7B9"/>
<stop offset="1" stop-opacity="0"/>
</linearGradient>
<linearGradient id="paint26_linear_101_79" x1="1656.15" y1="41.3766" x2="1664.13" y2="33.8105" gradientUnits="userSpaceOnUse">
<stop stop-color="#FEE7B9"/>
<stop offset="1" stop-opacity="0"/>
</linearGradient>
<linearGradient id="paint27_linear_101_79" x1="1840.55" y1="82.4678" x2="1858.49" y2="80.9752" gradientUnits="userSpaceOnUse">
<stop stop-color="#FEE7B9"/>
<stop offset="1" stop-opacity="0"/>
</linearGradient>
<linearGradient id="paint28_linear_101_79" x1="1735.43" y1="136.968" x2="1750.02" y2="140.427" gradientUnits="userSpaceOnUse">
<stop stop-color="#FEE7B9"/>
<stop offset="1" stop-opacity="0"/>
</linearGradient>
<linearGradient id="paint29_linear_101_79" x1="1642.64" y1="146.252" x2="1661.64" y2="128.499" gradientUnits="userSpaceOnUse">
<stop stop-color="#FEE7B9"/>
<stop offset="1" stop-opacity="0"/>
</linearGradient>
<linearGradient id="paint30_linear_101_79" x1="1722.3" y1="68.4128" x2="1741.83" y2="56.2643" gradientUnits="userSpaceOnUse">
<stop stop-color="#FEE7B9"/>
<stop offset="1" stop-opacity="0"/>
</linearGradient>
<linearGradient id="paint31_linear_101_79" x1="1808.19" y1="28.5276" x2="1816.68" y2="23.2456" gradientUnits="userSpaceOnUse">
<stop stop-color="#FEE7B9"/>
<stop offset="1" stop-opacity="0"/>
</linearGradient>
<linearGradient id="paint32_linear_101_79" x1="1599.25" y1="87.3338" x2="1619.22" y2="80.8426" gradientUnits="userSpaceOnUse">
<stop stop-color="#FEE7B9"/>
<stop offset="1" stop-opacity="0"/>
</linearGradient>
<linearGradient id="paint33_linear_101_79" x1="1647.82" y1="225.342" x2="1626.29" y2="210.764" gradientUnits="userSpaceOnUse">
<stop stop-color="#FEE7B9"/>
<stop offset="1" stop-opacity="0"/>
</linearGradient>
<linearGradient id="paint34_linear_101_79" x1="135.214" y1="52.1278" x2="129.584" y2="50.0535" gradientUnits="userSpaceOnUse">
<stop stop-color="#FEE7B9"/>
<stop offset="1" stop-opacity="0"/>
</linearGradient>
<linearGradient id="paint35_linear_101_79" x1="196.161" y1="190.102" x2="185.286" y2="188.447" gradientUnits="userSpaceOnUse">
<stop stop-color="#FEE7B9"/>
<stop offset="1" stop-opacity="0"/>
</linearGradient>
<linearGradient id="paint36_linear_101_79" x1="300.702" y1="43.0917" x2="289.827" y2="41.4374" gradientUnits="userSpaceOnUse">
<stop stop-color="#FEE7B9"/>
<stop offset="1" stop-opacity="0"/>
</linearGradient>
<linearGradient id="paint37_linear_101_79" x1="115.335" y1="19.3369" x2="103.14" y2="6.0973" gradientUnits="userSpaceOnUse">
<stop stop-color="#FEE7B9"/>
<stop offset="1" stop-opacity="0"/>
</linearGradient>
<linearGradient id="paint38_linear_101_79" x1="222.91" y1="68.8272" x2="216.675" y2="55.1842" gradientUnits="userSpaceOnUse">
<stop stop-color="#FEE7B9"/>
<stop offset="1" stop-opacity="0"/>
</linearGradient>
<linearGradient id="paint39_linear_101_79" x1="287.223" y1="136.351" x2="261.547" y2="132.264" gradientUnits="userSpaceOnUse">
<stop stop-color="#FEE7B9"/>
<stop offset="1" stop-opacity="0"/>
</linearGradient>
<linearGradient id="paint40_linear_101_79" x1="176.871" y1="121.294" x2="155.29" y2="113.342" gradientUnits="userSpaceOnUse">
<stop stop-color="#FEE7B9"/>
<stop offset="1" stop-opacity="0"/>
</linearGradient>
<linearGradient id="paint41_linear_101_79" x1="92.6429" y1="78.0059" x2="83.2595" y2="74.5488" gradientUnits="userSpaceOnUse">
<stop stop-color="#FEE7B9"/>
<stop offset="1" stop-opacity="0"/>
</linearGradient>
<linearGradient id="paint42_linear_101_79" x1="40.112" y1="36.3106" x2="30.7286" y2="32.8535" gradientUnits="userSpaceOnUse">
<stop stop-color="#FEE7B9"/>
<stop offset="1" stop-opacity="0"/>
</linearGradient>
<linearGradient id="paint43_linear_101_79" x1="272.857" y1="242.76" x2="261.265" y2="234.91" gradientUnits="userSpaceOnUse">
<stop stop-color="#FEE7B9"/>
<stop offset="1" stop-opacity="0"/>
</linearGradient>
<linearGradient id="paint44_linear_101_79" x1="45.8176" y1="87.3422" x2="24.2889" y2="72.7644" gradientUnits="userSpaceOnUse">
<stop stop-color="#FEE7B9"/>
<stop offset="1" stop-opacity="0"/>
</linearGradient>
<linearGradient id="paint45_linear_101_79" x1="448.236" y1="243.987" x2="424.709" y2="255.054" gradientUnits="userSpaceOnUse">
<stop stop-color="#FEE7B9"/>
<stop offset="1" stop-opacity="0"/>
</linearGradient>
<linearGradient id="paint46_linear_101_79" x1="1391.81" y1="142.282" x2="1389.56" y2="116.38" gradientUnits="userSpaceOnUse">
<stop stop-color="#FEE7B9"/>
<stop offset="1" stop-opacity="0"/>
</linearGradient>
</defs>
</svg>
