<svg width="1843" height="318" viewBox="0 0 1843 318" fill="none" xmlns="http://www.w3.org/2000/svg">
<path d="M337.114 212.162L337.453 214.822L340.114 215.162L337.453 215.501L337.114 218.162L336.774 215.501L334.114 215.162L336.774 214.822L337.114 212.162Z" fill="#FEE7B9"/>
<path d="M337.114 212.162L337.453 214.822L340.114 215.162L337.453 215.501L337.114 218.162L336.774 215.501L334.114 215.162L336.774 214.822L337.114 212.162Z" fill="url(#paint0_linear_77_2986)" fill-opacity="0.2"/>
<path d="M1437.33 65.1277L1434.71 64.5264L1433.48 66.9056L1434.08 64.2918L1431.7 63.0535L1434.31 63.6548L1435.55 61.2756L1434.95 63.8895L1437.33 65.1277Z" fill="#FEE7B9"/>
<path d="M1437.33 65.1277L1434.71 64.5264L1433.48 66.9056L1434.08 64.2918L1431.7 63.0535L1434.31 63.6548L1435.55 61.2756L1434.95 63.8895L1437.33 65.1277Z" fill="url(#paint1_linear_77_2986)" fill-opacity="0.2"/>
<path d="M445.51 107.274L447.189 111.79L452.002 111.558L447.486 113.237L447.717 118.05L446.038 113.534L441.226 113.765L445.742 112.086L445.51 107.274Z" fill="#FEE7B9"/>
<path d="M445.51 107.274L447.189 111.79L452.002 111.558L447.486 113.237L447.717 118.05L446.038 113.534L441.226 113.765L445.742 112.086L445.51 107.274Z" fill="url(#paint2_linear_77_2986)" fill-opacity="0.2"/>
<path d="M1498.27 203.101L1493.46 203.116L1492.01 207.712L1492 202.894L1487.4 201.447L1492.22 201.432L1493.66 196.837L1493.68 201.655L1498.27 203.101Z" fill="#FEE7B9"/>
<path d="M1498.27 203.101L1493.46 203.116L1492.01 207.712L1492 202.894L1487.4 201.447L1492.22 201.432L1493.66 196.837L1493.68 201.655L1498.27 203.101Z" fill="url(#paint3_linear_77_2986)" fill-opacity="0.2"/>
<path d="M1477.82 294.254L1473 294.268L1471.55 298.864L1471.54 294.046L1466.94 292.599L1471.76 292.585L1473.21 287.989L1473.22 292.807L1477.82 294.254Z" fill="#FEE7B9"/>
<path d="M1477.82 294.254L1473 294.268L1471.55 298.864L1471.54 294.046L1466.94 292.599L1471.76 292.585L1473.21 287.989L1473.22 292.807L1477.82 294.254Z" fill="url(#paint4_linear_77_2986)" fill-opacity="0.2"/>
<path d="M313.218 242.152L311.084 249.527L317.124 254.266L309.749 252.132L305.01 258.172L307.144 250.797L301.104 246.058L308.479 248.192L313.218 242.152Z" fill="#FEE7B9"/>
<path d="M313.218 242.152L311.084 249.527L317.124 254.266L309.749 252.132L305.01 258.172L307.144 250.797L301.104 246.058L308.479 248.192L313.218 242.152Z" fill="url(#paint5_linear_77_2986)" fill-opacity="0.2"/>
<path d="M1417.45 32.337L1411.27 27.7854L1404.73 31.8146L1409.28 25.6322L1405.25 19.0974L1411.44 23.6489L1417.97 19.6198L1413.42 25.8021L1417.45 32.337Z" fill="#FEE7B9"/>
<path d="M1417.45 32.337L1411.27 27.7854L1404.73 31.8146L1409.28 25.6322L1405.25 19.0974L1411.44 23.6489L1417.97 19.6198L1413.42 25.8021L1417.45 32.337Z" fill="url(#paint6_linear_77_2986)" fill-opacity="0.2"/>
<path d="M322.466 124.1L319.393 129.392L322.426 134.707L317.135 131.634L311.82 134.667L314.893 129.375L311.86 124.06L317.152 127.134L322.466 124.1Z" fill="#FEE7B9"/>
<path d="M322.466 124.1L319.393 129.392L322.426 134.707L317.135 131.634L311.82 134.667L314.893 129.375L311.86 124.06L317.152 127.134L322.466 124.1Z" fill="url(#paint7_linear_77_2986)" fill-opacity="0.2"/>
<path d="M1525.02 81.8271L1521.12 77.1139L1515.08 78.1228L1519.8 74.2198L1518.79 68.184L1522.69 72.8972L1528.73 71.8883L1524.01 75.7913L1525.02 81.8271Z" fill="#FEE7B9"/>
<path d="M1525.02 81.8271L1521.12 77.1139L1515.08 78.1228L1519.8 74.2198L1518.79 68.184L1522.69 72.8972L1528.73 71.8883L1524.01 75.7913L1525.02 81.8271Z" fill="url(#paint8_linear_77_2986)" fill-opacity="0.2"/>
<path d="M363.593 40.4086L368.878 49.0367L378.867 50.6416L370.239 55.9258L368.634 65.9153L363.35 57.2872L353.36 55.6824L361.988 50.3981L363.593 40.4086Z" fill="#FEE7B9"/>
<path d="M363.593 40.4086L368.878 49.0367L378.867 50.6416L370.239 55.9258L368.634 65.9153L363.35 57.2872L353.36 55.6824L361.988 50.3981L363.593 40.4086Z" fill="url(#paint9_linear_77_2986)" fill-opacity="0.2"/>
<path d="M1589.34 149.351L1579.41 151.327L1574.45 160.146L1572.48 150.223L1563.66 145.263L1573.58 143.288L1578.54 134.469L1580.52 144.392L1589.34 149.351Z" fill="#FEE7B9"/>
<path d="M1589.34 149.351L1579.41 151.327L1574.45 160.146L1572.48 150.223L1563.66 145.263L1573.58 143.288L1578.54 134.469L1580.52 144.392L1589.34 149.351Z" fill="url(#paint10_linear_77_2986)" fill-opacity="0.2"/>
<path d="M387.614 149.162L390.053 158.222L399.114 160.662L390.053 163.101L387.614 172.162L385.174 163.101L376.114 160.662L385.174 158.222L387.614 149.162Z" fill="#FEE7B9"/>
<path d="M387.614 149.162L390.053 158.222L399.114 160.662L390.053 163.101L387.614 172.162L385.174 163.101L376.114 160.662L385.174 158.222L387.614 149.162Z" fill="url(#paint11_linear_77_2986)" fill-opacity="0.2"/>
<path d="M1478.99 134.294L1469.64 133.45L1464.22 141.109L1465.06 131.764L1457.4 126.342L1466.75 127.185L1472.17 119.527L1471.33 128.872L1478.99 134.294Z" fill="#FEE7B9"/>
<path d="M1478.99 134.294L1469.64 133.45L1464.22 141.109L1465.06 131.764L1457.4 126.342L1466.75 127.185L1472.17 119.527L1471.33 128.872L1478.99 134.294Z" fill="url(#paint12_linear_77_2986)" fill-opacity="0.2"/>
<path d="M376.114 243.162L376.892 247.384L381.114 248.162L376.892 248.94L376.114 253.162L375.336 248.94L371.114 248.162L375.336 247.384L376.114 243.162Z" fill="#FEE7B9"/>
<path d="M376.114 243.162L376.892 247.384L381.114 248.162L376.892 248.94L376.114 253.162L375.336 248.94L371.114 248.162L375.336 247.384L376.114 243.162Z" fill="url(#paint13_linear_77_2986)" fill-opacity="0.2"/>
<path d="M1394.76 91.0059L1390.53 90.2761L1388.34 93.9691L1389.07 89.7383L1385.37 87.5488L1389.6 88.2786L1391.79 84.5857L1391.06 88.8164L1394.76 91.0059Z" fill="#FEE7B9"/>
<path d="M1394.76 91.0059L1390.53 90.2761L1388.34 93.9691L1389.07 89.7383L1385.37 87.5488L1389.6 88.2786L1391.79 84.5857L1391.06 88.8164L1394.76 91.0059Z" fill="url(#paint14_linear_77_2986)" fill-opacity="0.2"/>
<path d="M1342.23 49.3108L1337.99 48.581L1335.81 52.2739L1336.54 48.0432L1332.84 45.8537L1337.07 46.5834L1339.26 42.8905L1338.53 47.1212L1342.23 49.3108Z" fill="#FEE7B9"/>
<path d="M1342.23 49.3108L1337.99 48.581L1335.81 52.2739L1336.54 48.0432L1332.84 45.8537L1337.07 46.5834L1339.26 42.8905L1338.53 47.1212L1342.23 49.3108Z" fill="url(#paint15_linear_77_2986)" fill-opacity="0.2"/>
<path d="M436.543 34.6804L435.373 44.0599L444.218 47.3924L434.839 46.2222L431.506 55.0674L432.677 45.688L423.831 42.3554L433.211 43.5256L436.543 34.6804Z" fill="#FEE7B9"/>
<path d="M436.543 34.6804L435.373 44.0599L444.218 47.3924L434.839 46.2222L431.506 55.0674L432.677 45.688L423.831 42.3554L433.211 43.5256L436.543 34.6804Z" fill="url(#paint16_linear_77_2986)" fill-opacity="0.2"/>
<path d="M1574.97 255.76L1569.68 254.46L1565.25 257.631L1566.55 252.34L1563.38 247.91L1568.67 249.209L1573.1 246.039L1571.8 251.329L1574.97 255.76Z" fill="#FEE7B9"/>
<path d="M1574.97 255.76L1569.68 254.46L1565.25 257.631L1566.55 252.34L1563.38 247.91L1568.67 249.209L1573.1 246.039L1571.8 251.329L1574.97 255.76Z" fill="url(#paint17_linear_77_2986)" fill-opacity="0.2"/>
<path d="M1538.93 306.504L1529.11 304.091L1520.88 309.98L1523.29 300.154L1517.4 291.926L1527.23 294.339L1535.46 288.451L1533.04 298.277L1538.93 306.504Z" fill="#FEE7B9"/>
<path d="M1538.93 306.504L1529.11 304.091L1520.88 309.98L1523.29 300.154L1517.4 291.926L1527.23 294.339L1535.46 288.451L1533.04 298.277L1538.93 306.504Z" fill="url(#paint18_linear_77_2986)" fill-opacity="0.2"/>
<path d="M1785.47 78.0174L1787.55 76.3239L1786.43 73.8854L1788.12 75.9653L1790.56 74.8482L1788.48 76.5417L1789.6 78.9802L1787.91 76.9003L1785.47 78.0174Z" fill="#FEE7B9"/>
<path d="M1785.47 78.0174L1787.55 76.3239L1786.43 73.8854L1788.12 75.9653L1790.56 74.8482L1788.48 76.5417L1789.6 78.9802L1787.91 76.9003L1785.47 78.0174Z" fill="url(#paint19_linear_77_2986)" fill-opacity="0.2"/>
<path d="M1639.15 41.3767L1642.1 37.5655L1639.36 33.6013L1643.17 36.549L1647.13 33.8106L1644.19 37.6217L1646.93 41.5859L1643.11 38.6382L1639.15 41.3767Z" fill="#FEE7B9"/>
<path d="M1639.15 41.3767L1642.1 37.5655L1639.36 33.6013L1643.17 36.549L1647.13 33.8106L1644.19 37.6217L1646.93 41.5859L1643.11 38.6382L1639.15 41.3767Z" fill="url(#paint20_linear_77_2986)" fill-opacity="0.2"/>
<path d="M1823.55 82.4677L1830.94 80.3841L1831.78 72.7524L1833.86 80.1414L1841.49 80.9752L1834.1 83.0587L1833.27 90.6904L1831.19 83.3015L1823.55 82.4677Z" fill="#FEE7B9"/>
<path d="M1823.55 82.4677L1830.94 80.3841L1831.78 72.7524L1833.86 80.1414L1841.49 80.9752L1834.1 83.0587L1833.27 90.6904L1831.19 83.3015L1823.55 82.4677Z" fill="url(#paint21_linear_77_2986)" fill-opacity="0.2"/>
<path d="M1718.43 136.968L1724.55 136.783L1727.46 131.4L1727.64 137.517L1733.02 140.427L1726.91 140.613L1724 145.996L1723.81 139.879L1718.43 136.968Z" fill="#FEE7B9"/>
<path d="M1718.43 136.968L1724.55 136.783L1727.46 131.4L1727.64 137.517L1733.02 140.427L1726.91 140.613L1724 145.996L1723.81 139.879L1718.43 136.968Z" fill="url(#paint22_linear_77_2986)" fill-opacity="0.2"/>
<path d="M1625.64 146.252L1630.18 137.208L1626.26 127.878L1635.31 132.413L1644.64 128.499L1640.1 137.544L1644.02 146.874L1634.97 142.338L1625.64 146.252Z" fill="#FEE7B9"/>
<path d="M1625.64 146.252L1630.18 137.208L1626.26 127.878L1635.31 132.413L1644.64 128.499L1640.1 137.544L1644.02 146.874L1634.97 142.338L1625.64 146.252Z" fill="url(#paint23_linear_77_2986)" fill-opacity="0.2"/>
<path d="M1705.3 68.4129L1711.7 61.5557L1708.99 52.5737L1715.85 58.9786L1724.83 56.2644L1718.42 63.1216L1721.14 72.1036L1714.28 65.6986L1705.3 68.4129Z" fill="#FEE7B9"/>
<path d="M1705.3 68.4129L1711.7 61.5557L1708.99 52.5737L1715.85 58.9786L1724.83 56.2644L1718.42 63.1216L1721.14 72.1036L1714.28 65.6986L1705.3 68.4129Z" fill="url(#paint24_linear_77_2986)" fill-opacity="0.2"/>
<path d="M1791.19 28.5275L1794.37 25.6369L1792.8 21.641L1795.69 24.8153L1799.68 23.2456L1796.51 26.1362L1798.08 30.1322L1795.19 26.9579L1791.19 28.5275Z" fill="#FEE7B9"/>
<path d="M1791.19 28.5275L1794.37 25.6369L1792.8 21.641L1795.69 24.8153L1799.68 23.2456L1796.51 26.1362L1798.08 30.1322L1795.19 26.9579L1791.19 28.5275Z" fill="url(#paint25_linear_77_2986)" fill-opacity="0.2"/>
<path d="M1582.25 87.3339L1590.83 83.3734L1588.99 74.1025L1592.95 82.6849L1602.22 80.8427L1593.63 84.8032L1595.48 94.0741L1591.52 85.4917L1582.25 87.3339Z" fill="#FEE7B9"/>
<path d="M1582.25 87.3339L1590.83 83.3734L1588.99 74.1025L1592.95 82.6849L1602.22 80.8427L1593.63 84.8032L1595.48 94.0741L1591.52 85.4917L1582.25 87.3339Z" fill="url(#paint26_linear_77_2986)" fill-opacity="0.2"/>
<path d="M1630.82 225.342L1620.99 222.929L1612.76 228.818L1615.18 218.992L1609.29 210.764L1619.11 213.177L1627.34 207.289L1624.93 217.115L1630.82 225.342Z" fill="#FEE7B9"/>
<path d="M1630.82 225.342L1620.99 222.929L1612.76 228.818L1615.18 218.992L1609.29 210.764L1619.11 213.177L1627.34 207.289L1624.93 217.115L1630.82 225.342Z" fill="url(#paint27_linear_77_2986)" fill-opacity="0.2"/>
<path d="M118.214 52.1277L115.6 51.5264L114.362 53.9056L114.963 51.2917L112.584 50.0534L115.198 50.6547L116.436 48.2755L115.835 50.8894L118.214 52.1277Z" fill="#FEE7B9"/>
<path d="M118.214 52.1277L115.6 51.5264L114.362 53.9056L114.963 51.2917L112.584 50.0534L115.198 50.6547L116.436 48.2755L115.835 50.8894L118.214 52.1277Z" fill="url(#paint28_linear_77_2986)" fill-opacity="0.2"/>
<path d="M179.161 190.101L174.343 190.116L172.897 194.712L172.882 189.894L168.286 188.447L173.104 188.433L174.551 183.837L174.565 188.655L179.161 190.101Z" fill="#FEE7B9"/>
<path d="M179.161 190.101L174.343 190.116L172.897 194.712L172.882 189.894L168.286 188.447L173.104 188.433L174.551 183.837L174.565 188.655L179.161 190.101Z" fill="url(#paint29_linear_77_2986)" fill-opacity="0.2"/>
<path d="M283.702 43.0918L278.884 43.1063L277.437 47.702L277.423 42.884L272.827 41.4374L277.645 41.4229L279.092 36.8272L279.106 41.6452L283.702 43.0918Z" fill="#FEE7B9"/>
<path d="M283.702 43.0918L278.884 43.1063L277.437 47.702L277.423 42.884L272.827 41.4374L277.645 41.4229L279.092 36.8272L279.106 41.6452L283.702 43.0918Z" fill="url(#paint30_linear_77_2986)" fill-opacity="0.2"/>
<path d="M98.3345 19.337L92.1521 14.7855L85.6173 18.8146L90.1688 12.6322L86.1397 6.09741L92.3221 10.649L98.8569 6.61981L94.3054 12.8022L98.3345 19.337Z" fill="#FEE7B9"/>
<path d="M98.3345 19.337L92.1521 14.7855L85.6173 18.8146L90.1688 12.6322L86.1397 6.09741L92.3221 10.649L98.8569 6.61981L94.3054 12.8022L98.3345 19.337Z" fill="url(#paint31_linear_77_2986)" fill-opacity="0.2"/>
<path d="M205.91 68.8272L202.006 64.114L195.971 65.1229L200.684 61.2199L199.675 55.1842L203.578 59.8973L209.614 58.8884L204.901 62.7915L205.91 68.8272Z" fill="#FEE7B9"/>
<path d="M205.91 68.8272L202.006 64.114L195.971 65.1229L200.684 61.2199L199.675 55.1842L203.578 59.8973L209.614 58.8884L204.901 62.7915L205.91 68.8272Z" fill="url(#paint32_linear_77_2986)" fill-opacity="0.2"/>
<path d="M270.223 136.351L260.3 138.327L255.341 147.146L253.365 137.223L244.547 132.264L254.469 130.288L259.429 121.469L261.404 131.392L270.223 136.351Z" fill="#FEE7B9"/>
<path d="M270.223 136.351L260.3 138.327L255.341 147.146L253.365 137.223L244.547 132.264L254.469 130.288L259.429 121.469L261.404 131.392L270.223 136.351Z" fill="url(#paint33_linear_77_2986)" fill-opacity="0.2"/>
<path d="M159.871 121.294L150.526 120.45L145.105 128.109L145.948 118.764L138.289 113.342L147.635 114.186L153.056 106.527L152.213 115.872L159.871 121.294Z" fill="#FEE7B9"/>
<path d="M159.871 121.294L150.526 120.45L145.105 128.109L145.948 118.764L138.289 113.342L147.635 114.186L153.056 106.527L152.213 115.872L159.871 121.294Z" fill="url(#paint34_linear_77_2986)" fill-opacity="0.2"/>
<path d="M75.6429 78.006L71.4121 77.2762L69.2226 80.9692L69.9524 76.7384L66.2594 74.5489L70.4902 75.2787L72.6797 71.5858L71.9499 75.8165L75.6429 78.006Z" fill="#FEE7B9"/>
<path d="M75.6429 78.006L71.4121 77.2762L69.2226 80.9692L69.9524 76.7384L66.2594 74.5489L70.4902 75.2787L72.6797 71.5858L71.9499 75.8165L75.6429 78.006Z" fill="url(#paint35_linear_77_2986)" fill-opacity="0.2"/>
<path d="M23.112 36.3107L18.8812 35.5809L16.6917 39.2739L17.4215 35.0431L13.7286 32.8536L17.9593 33.5834L20.1488 29.8905L19.419 34.1212L23.112 36.3107Z" fill="#FEE7B9"/>
<path d="M23.112 36.3107L18.8812 35.5809L16.6917 39.2739L17.4215 35.0431L13.7286 32.8536L17.9593 33.5834L20.1488 29.8905L19.419 34.1212L23.112 36.3107Z" fill="url(#paint36_linear_77_2986)" fill-opacity="0.2"/>
<path d="M255.857 242.76L250.566 241.46L246.136 244.631L247.436 239.34L244.265 234.91L249.556 236.209L253.986 233.039L252.687 238.329L255.857 242.76Z" fill="#FEE7B9"/>
<path d="M255.857 242.76L250.566 241.46L246.136 244.631L247.436 239.34L244.265 234.91L249.556 236.209L253.986 233.039L252.687 238.329L255.857 242.76Z" fill="url(#paint37_linear_77_2986)" fill-opacity="0.2"/>
<path d="M28.8176 87.3422L18.992 84.9293L10.7643 90.8176L13.1772 80.992L7.28891 72.7643L17.1146 75.1772L25.3422 69.2889L22.9293 79.1146L28.8176 87.3422Z" fill="#FEE7B9"/>
<path d="M28.8176 87.3422L18.992 84.9293L10.7643 90.8176L13.1772 80.992L7.28891 72.7643L17.1146 75.1772L25.3422 69.2889L22.9293 79.1146L28.8176 87.3422Z" fill="url(#paint38_linear_77_2986)" fill-opacity="0.2"/>
<path d="M431.236 243.987L424.144 251.203L425.005 261.284L417.789 254.192L407.709 255.054L414.801 247.838L413.939 237.757L421.155 244.849L431.236 243.987Z" fill="#FEE7B9"/>
<path d="M431.236 243.987L424.144 251.203L425.005 261.284L417.789 254.192L407.709 255.054L414.801 247.838L413.939 237.757L421.155 244.849L431.236 243.987Z" fill="url(#paint39_linear_77_2986)" fill-opacity="0.2"/>
<path d="M1374.81 142.282L1370.49 133.133L1360.74 130.456L1369.88 126.137L1372.56 116.38L1376.88 125.529L1386.64 128.206L1377.49 132.525L1374.81 142.282Z" fill="#FEE7B9"/>
<path d="M1374.81 142.282L1370.49 133.133L1360.74 130.456L1369.88 126.137L1372.56 116.38L1376.88 125.529L1386.64 128.206L1377.49 132.525L1374.81 142.282Z" fill="url(#paint40_linear_77_2986)" fill-opacity="0.2"/>
<defs>
<linearGradient id="paint0_linear_77_2986" x1="337.114" y1="212.162" x2="337.114" y2="218.162" gradientUnits="userSpaceOnUse">
<stop stop-color="#FEE7B9"/>
<stop offset="1" stop-opacity="0"/>
</linearGradient>
<linearGradient id="paint1_linear_77_2986" x1="1437.33" y1="65.1277" x2="1431.7" y2="63.0535" gradientUnits="userSpaceOnUse">
<stop stop-color="#FEE7B9"/>
<stop offset="1" stop-opacity="0"/>
</linearGradient>
<linearGradient id="paint2_linear_77_2986" x1="445.51" y1="107.274" x2="447.717" y2="118.05" gradientUnits="userSpaceOnUse">
<stop stop-color="#FEE7B9"/>
<stop offset="1" stop-opacity="0"/>
</linearGradient>
<linearGradient id="paint3_linear_77_2986" x1="1498.27" y1="203.101" x2="1487.4" y2="201.447" gradientUnits="userSpaceOnUse">
<stop stop-color="#FEE7B9"/>
<stop offset="1" stop-opacity="0"/>
</linearGradient>
<linearGradient id="paint4_linear_77_2986" x1="1477.82" y1="294.254" x2="1466.94" y2="292.599" gradientUnits="userSpaceOnUse">
<stop stop-color="#FEE7B9"/>
<stop offset="1" stop-opacity="0"/>
</linearGradient>
<linearGradient id="paint5_linear_77_2986" x1="313.218" y1="242.152" x2="305.01" y2="258.172" gradientUnits="userSpaceOnUse">
<stop stop-color="#FEE7B9"/>
<stop offset="1" stop-opacity="0"/>
</linearGradient>
<linearGradient id="paint6_linear_77_2986" x1="1417.45" y1="32.337" x2="1405.25" y2="19.0974" gradientUnits="userSpaceOnUse">
<stop stop-color="#FEE7B9"/>
<stop offset="1" stop-opacity="0"/>
</linearGradient>
<linearGradient id="paint7_linear_77_2986" x1="322.466" y1="124.1" x2="311.82" y2="134.667" gradientUnits="userSpaceOnUse">
<stop stop-color="#FEE7B9"/>
<stop offset="1" stop-opacity="0"/>
</linearGradient>
<linearGradient id="paint8_linear_77_2986" x1="1525.02" y1="81.8271" x2="1518.79" y2="68.184" gradientUnits="userSpaceOnUse">
<stop stop-color="#FEE7B9"/>
<stop offset="1" stop-opacity="0"/>
</linearGradient>
<linearGradient id="paint9_linear_77_2986" x1="363.593" y1="40.4086" x2="368.634" y2="65.9153" gradientUnits="userSpaceOnUse">
<stop stop-color="#FEE7B9"/>
<stop offset="1" stop-opacity="0"/>
</linearGradient>
<linearGradient id="paint10_linear_77_2986" x1="1589.34" y1="149.351" x2="1563.66" y2="145.263" gradientUnits="userSpaceOnUse">
<stop stop-color="#FEE7B9"/>
<stop offset="1" stop-opacity="0"/>
</linearGradient>
<linearGradient id="paint11_linear_77_2986" x1="387.614" y1="149.162" x2="387.614" y2="172.162" gradientUnits="userSpaceOnUse">
<stop stop-color="#FEE7B9"/>
<stop offset="1" stop-opacity="0"/>
</linearGradient>
<linearGradient id="paint12_linear_77_2986" x1="1478.99" y1="134.294" x2="1457.4" y2="126.342" gradientUnits="userSpaceOnUse">
<stop stop-color="#FEE7B9"/>
<stop offset="1" stop-opacity="0"/>
</linearGradient>
<linearGradient id="paint13_linear_77_2986" x1="376.114" y1="243.162" x2="376.114" y2="253.162" gradientUnits="userSpaceOnUse">
<stop stop-color="#FEE7B9"/>
<stop offset="1" stop-opacity="0"/>
</linearGradient>
<linearGradient id="paint14_linear_77_2986" x1="1394.76" y1="91.0059" x2="1385.37" y2="87.5488" gradientUnits="userSpaceOnUse">
<stop stop-color="#FEE7B9"/>
<stop offset="1" stop-opacity="0"/>
</linearGradient>
<linearGradient id="paint15_linear_77_2986" x1="1342.23" y1="49.3108" x2="1332.84" y2="45.8537" gradientUnits="userSpaceOnUse">
<stop stop-color="#FEE7B9"/>
<stop offset="1" stop-opacity="0"/>
</linearGradient>
<linearGradient id="paint16_linear_77_2986" x1="436.543" y1="34.6804" x2="431.506" y2="55.0674" gradientUnits="userSpaceOnUse">
<stop stop-color="#FEE7B9"/>
<stop offset="1" stop-opacity="0"/>
</linearGradient>
<linearGradient id="paint17_linear_77_2986" x1="1574.97" y1="255.76" x2="1563.38" y2="247.91" gradientUnits="userSpaceOnUse">
<stop stop-color="#FEE7B9"/>
<stop offset="1" stop-opacity="0"/>
</linearGradient>
<linearGradient id="paint18_linear_77_2986" x1="1538.93" y1="306.504" x2="1517.4" y2="291.926" gradientUnits="userSpaceOnUse">
<stop stop-color="#FEE7B9"/>
<stop offset="1" stop-opacity="0"/>
</linearGradient>
<linearGradient id="paint19_linear_77_2986" x1="1785.47" y1="78.0174" x2="1790.56" y2="74.8482" gradientUnits="userSpaceOnUse">
<stop stop-color="#FEE7B9"/>
<stop offset="1" stop-opacity="0"/>
</linearGradient>
<linearGradient id="paint20_linear_77_2986" x1="1639.15" y1="41.3767" x2="1647.13" y2="33.8106" gradientUnits="userSpaceOnUse">
<stop stop-color="#FEE7B9"/>
<stop offset="1" stop-opacity="0"/>
</linearGradient>
<linearGradient id="paint21_linear_77_2986" x1="1823.55" y1="82.4677" x2="1841.49" y2="80.9752" gradientUnits="userSpaceOnUse">
<stop stop-color="#FEE7B9"/>
<stop offset="1" stop-opacity="0"/>
</linearGradient>
<linearGradient id="paint22_linear_77_2986" x1="1718.43" y1="136.968" x2="1733.02" y2="140.427" gradientUnits="userSpaceOnUse">
<stop stop-color="#FEE7B9"/>
<stop offset="1" stop-opacity="0"/>
</linearGradient>
<linearGradient id="paint23_linear_77_2986" x1="1625.64" y1="146.252" x2="1644.64" y2="128.499" gradientUnits="userSpaceOnUse">
<stop stop-color="#FEE7B9"/>
<stop offset="1" stop-opacity="0"/>
</linearGradient>
<linearGradient id="paint24_linear_77_2986" x1="1705.3" y1="68.4129" x2="1724.83" y2="56.2644" gradientUnits="userSpaceOnUse">
<stop stop-color="#FEE7B9"/>
<stop offset="1" stop-opacity="0"/>
</linearGradient>
<linearGradient id="paint25_linear_77_2986" x1="1791.19" y1="28.5275" x2="1799.68" y2="23.2456" gradientUnits="userSpaceOnUse">
<stop stop-color="#FEE7B9"/>
<stop offset="1" stop-opacity="0"/>
</linearGradient>
<linearGradient id="paint26_linear_77_2986" x1="1582.25" y1="87.3339" x2="1602.22" y2="80.8427" gradientUnits="userSpaceOnUse">
<stop stop-color="#FEE7B9"/>
<stop offset="1" stop-opacity="0"/>
</linearGradient>
<linearGradient id="paint27_linear_77_2986" x1="1630.82" y1="225.342" x2="1609.29" y2="210.764" gradientUnits="userSpaceOnUse">
<stop stop-color="#FEE7B9"/>
<stop offset="1" stop-opacity="0"/>
</linearGradient>
<linearGradient id="paint28_linear_77_2986" x1="118.214" y1="52.1277" x2="112.584" y2="50.0534" gradientUnits="userSpaceOnUse">
<stop stop-color="#FEE7B9"/>
<stop offset="1" stop-opacity="0"/>
</linearGradient>
<linearGradient id="paint29_linear_77_2986" x1="179.161" y1="190.101" x2="168.286" y2="188.447" gradientUnits="userSpaceOnUse">
<stop stop-color="#FEE7B9"/>
<stop offset="1" stop-opacity="0"/>
</linearGradient>
<linearGradient id="paint30_linear_77_2986" x1="283.702" y1="43.0918" x2="272.827" y2="41.4374" gradientUnits="userSpaceOnUse">
<stop stop-color="#FEE7B9"/>
<stop offset="1" stop-opacity="0"/>
</linearGradient>
<linearGradient id="paint31_linear_77_2986" x1="98.3345" y1="19.337" x2="86.1397" y2="6.09741" gradientUnits="userSpaceOnUse">
<stop stop-color="#FEE7B9"/>
<stop offset="1" stop-opacity="0"/>
</linearGradient>
<linearGradient id="paint32_linear_77_2986" x1="205.91" y1="68.8272" x2="199.675" y2="55.1842" gradientUnits="userSpaceOnUse">
<stop stop-color="#FEE7B9"/>
<stop offset="1" stop-opacity="0"/>
</linearGradient>
<linearGradient id="paint33_linear_77_2986" x1="270.223" y1="136.351" x2="244.547" y2="132.264" gradientUnits="userSpaceOnUse">
<stop stop-color="#FEE7B9"/>
<stop offset="1" stop-opacity="0"/>
</linearGradient>
<linearGradient id="paint34_linear_77_2986" x1="159.871" y1="121.294" x2="138.289" y2="113.342" gradientUnits="userSpaceOnUse">
<stop stop-color="#FEE7B9"/>
<stop offset="1" stop-opacity="0"/>
</linearGradient>
<linearGradient id="paint35_linear_77_2986" x1="75.6429" y1="78.006" x2="66.2594" y2="74.5489" gradientUnits="userSpaceOnUse">
<stop stop-color="#FEE7B9"/>
<stop offset="1" stop-opacity="0"/>
</linearGradient>
<linearGradient id="paint36_linear_77_2986" x1="23.112" y1="36.3107" x2="13.7286" y2="32.8536" gradientUnits="userSpaceOnUse">
<stop stop-color="#FEE7B9"/>
<stop offset="1" stop-opacity="0"/>
</linearGradient>
<linearGradient id="paint37_linear_77_2986" x1="255.857" y1="242.76" x2="244.265" y2="234.91" gradientUnits="userSpaceOnUse">
<stop stop-color="#FEE7B9"/>
<stop offset="1" stop-opacity="0"/>
</linearGradient>
<linearGradient id="paint38_linear_77_2986" x1="28.8176" y1="87.3422" x2="7.28891" y2="72.7643" gradientUnits="userSpaceOnUse">
<stop stop-color="#FEE7B9"/>
<stop offset="1" stop-opacity="0"/>
</linearGradient>
<linearGradient id="paint39_linear_77_2986" x1="431.236" y1="243.987" x2="407.709" y2="255.054" gradientUnits="userSpaceOnUse">
<stop stop-color="#FEE7B9"/>
<stop offset="1" stop-opacity="0"/>
</linearGradient>
<linearGradient id="paint40_linear_77_2986" x1="1374.81" y1="142.282" x2="1372.56" y2="116.38" gradientUnits="userSpaceOnUse">
<stop stop-color="#FEE7B9"/>
<stop offset="1" stop-opacity="0"/>
</linearGradient>
</defs>
</svg>
